<?xml version="1.0" standalone="no"?>
<!DOCTYPE svg PUBLIC "-//W3C//DTD SVG 20010904//EN"
 "http://www.w3.org/TR/2001/REC-SVG-20010904/DTD/svg10.dtd">
<svg version="1.0" xmlns="http://www.w3.org/2000/svg"
 width="2400.000000pt" height="2090.000000pt" viewBox="0 0 2400.000000 2090.000000"
 preserveAspectRatio="xMidYMid meet">

<g transform="translate(0.000000,2090.000000) scale(0.100000,-0.100000)"
fill="#000000" stroke="none">
<path d="M22864 20563 c-141 -168 -820 -955 -1028 -1193 -1402 -1602 -2575
-2844 -3748 -3966 l-147 -140 146 -119 c101 -81 150 -115 159 -109 7 5 44 37
82 71 l69 63 173 -167 173 -167 -79 -72 -78 -72 24 -30 c14 -17 68 -80 120
-141 l95 -110 19 22 c10 12 64 72 120 132 178 191 2029 2236 2861 3160 925
1026 1893 2118 1918 2161 9 15 -75 147 -165 262 l-50 62 26 31 c14 17 26 36
26 44 0 20 -83 126 -126 161 -42 33 -96 64 -114 64 -5 0 -23 -14 -38 -31 l-28
-31 -84 53 c-84 52 -229 119 -261 119 -9 0 -38 -26 -65 -57z m124 -927 c34
-93 61 -170 59 -171 -1 -1 -80 21 -175 49 l-172 51 -50 157 c-28 86 -50 158
-50 161 0 2 73 -14 163 -36 l163 -41 62 -170z m-309 -349 c34 -94 60 -171 59
-172 -2 -1 -80 21 -175 49 l-171 51 -51 156 c-28 86 -51 158 -51 161 0 3 74
-13 164 -35 l163 -41 62 -169z m-309 -351 c33 -93 59 -170 58 -171 -2 -1 -80
21 -174 49 l-171 51 -52 155 c-28 86 -51 158 -51 162 0 3 74 -13 164 -35 l165
-41 61 -170z m-311 -347 c34 -91 61 -168 61 -171 0 -3 -78 18 -174 46 l-174
51 -47 150 c-26 83 -50 155 -52 161 -3 7 64 -5 161 -29 l165 -41 60 -167z
m-371 -184 c3 -3 122 -328 122 -335 0 -4 -78 16 -172 44 l-173 51 -47 145
c-27 80 -50 152 -53 161 -5 14 20 10 157 -24 90 -22 164 -41 166 -42z m-457
-311 l147 -36 60 -166 c33 -92 59 -168 58 -169 -2 -2 -338 96 -342 100 -2 2
-24 67 -49 146 -26 79 -49 150 -52 158 -5 11 -1 14 13 10 10 -4 85 -23 165
-43z m-321 -342 l154 -37 58 -164 c32 -90 57 -165 55 -167 -2 -3 -79 17 -170
43 l-167 48 -36 115 c-60 187 -63 200 -56 200 4 -1 77 -18 162 -38z m-301
-350 l144 -37 58 -165 c33 -91 59 -165 59 -166 0 -4 -336 98 -340 104 -4 4
-12 25 -18 47 -7 22 -27 88 -46 148 -29 92 -32 107 -18 106 10 0 82 -17 161
-37z m-168 -393 c12 -20 112 -309 108 -313 -2 -2 -78 18 -168 43 l-163 47 -49
155 c-27 85 -49 154 -49 155 -1 8 315 -77 321 -87z m-259 -495 c47 -134 54
-164 40 -160 -9 3 -82 24 -162 47 -80 22 -149 45 -153 49 -8 7 -97 285 -97
301 0 4 71 -11 158 -33 l157 -39 57 -165z m-370 -187 c12 -18 108 -310 104
-314 -2 -2 -77 18 -167 45 l-163 48 -33 110 c-18 60 -39 130 -47 155 l-14 46
156 -39 c86 -22 160 -45 164 -51z m-260 -497 l55 -167 -166 51 c-91 27 -167
51 -169 51 -2 2 -92 305 -92 311 0 1 71 -16 158 -39 l158 -40 56 -167z m-399
-168 c26 -7 32 -19 82 -172 30 -90 53 -165 52 -165 -1 -1 -76 21 -167 49
l-165 52 -42 144 c-24 80 -43 150 -43 156 0 10 37 2 283 -64z m-318 -340 c29
-8 33 -16 82 -167 29 -88 52 -163 50 -166 -2 -5 -315 88 -326 97 -1 1 -20 63
-41 136 -20 73 -40 143 -44 155 -7 21 -5 21 121 -13 70 -18 142 -37 158 -42z
m-484 -119 c13 -16 12 -17 -3 -4 -17 13 -22 21 -14 21 2 0 10 -8 17 -17z m454
-443 c10 -11 16 -20 13 -20 -3 0 -13 9 -23 20 -10 11 -16 20 -13 20 3 0 13 -9
23 -20z"/>
<path d="M17327 15429 c-106 -82 -10 -300 258 -587 l77 -82 -138 -146 c-77
-81 -164 -174 -194 -207 l-55 -60 95 -88 c52 -49 98 -88 101 -86 4 1 138 123
298 272 160 148 295 271 301 273 10 4 280 -260 280 -274 0 -5 -133 -132 -296
-283 l-295 -275 113 -115 c70 -72 80 -84 26 -32 l-87 84 -173 -169 c-383 -375
-1114 -1072 -1698 -1620 -1958 -1834 -3878 -3524 -5837 -5138 -106 -87 -193
-160 -193 -162 0 -4 157 -84 165 -84 3 0 26 32 51 72 66 103 131 167 284 281
74 56 200 164 280 242 159 154 228 212 430 361 80 59 172 139 225 194 210 221
249 252 425 340 141 71 189 106 330 244 74 73 183 173 241 224 58 50 139 129
179 174 99 113 143 153 300 273 154 117 209 168 298 276 67 82 122 128 272
230 95 64 205 167 430 405 120 127 131 135 355 255 131 70 236 174 370 364
115 164 179 229 266 273 50 24 79 49 134 113 84 97 237 240 435 406 80 67 213
189 295 273 83 83 200 190 260 237 61 47 182 158 270 247 91 92 214 203 285
258 136 105 187 154 276 268 85 108 134 155 269 252 108 78 121 85 132 70 44
-62 36 -60 84 -17 24 21 239 225 478 454 238 229 485 466 549 527 l116 110 91
-76 c275 -231 476 -299 551 -184 44 66 -22 249 -159 439 -291 406 -950 1007
-1268 1158 -133 63 -233 76 -282 36z m456 -350 c116 -59 312 -223 552 -464 94
-93 201 -208 238 -255 71 -89 134 -201 122 -219 -13 -23 -31 -8 -57 47 -103
216 -727 807 -931 882 -16 5 -25 14 -22 20 10 16 53 11 98 -11z"/>
</g>
</svg>
